<?xml version="1.0" encoding="utf-8"?>
<!-- Generator: Adobe Illustrator 25.1.0, SVG Export Plug-In . SVG Version: 6.00 Build 0)  -->
<svg version="1.1" id="Layer_1" xmlns="http://www.w3.org/2000/svg" xmlns:xlink="http://www.w3.org/1999/xlink" x="0px" y="0px"
	 viewBox="0 0 232 68" style="enable-background:new 0 0 232 68;" xml:space="preserve">
<style type="text/css">
	.st0{fill:#4A4A4A;}
</style>
<g>
	<path class="st0" d="M80.7,49.1l2.1,0.6c-1.7,6.2-5.4,9.3-11.2,9.3c-4.2,0-7.7-1.4-10.3-4.2c-2.7-2.8-4-6.5-4-11.1
		c0-5.4,1.5-9.5,4.4-12.5c2.9-3,6.4-4.4,10.4-4.4c3,0,5.4,0.8,7.4,2.5c1.9,1.6,2.9,3.5,2.9,5.5c0,1.2-0.4,2.2-1.1,3
		c-0.7,0.8-1.6,1.2-2.6,1.2c-1,0-1.8-0.3-2.5-1c-0.7-0.7-1-1.5-1-2.4c0-0.9,0.4-1.9,1.1-2.7c0.3-0.4,0.5-0.7,0.5-1
		c0-0.6-0.4-1.2-1.3-1.8s-2-0.9-3.4-0.9c-2.6,0-4.6,1-6,2.9c-1.9,2.8-2.9,6.5-2.9,11c0,4.3,0.9,7.6,2.6,9.9c1.7,2.2,3.9,3.4,6.6,3.4
		C76.1,56.2,78.9,53.9,80.7,49.1z"/>
	<path class="st0" d="M119,54.8l1.2,1.8c-1.6,1.6-3.3,2.4-5.3,2.4c-1.5,0-2.7-0.4-3.7-1.2s-1.9-2.2-2.6-4.2
		c-2.1,2.2-3.9,3.6-5.4,4.3c-1.6,0.7-3.4,1.1-5.6,1.1c-3.1,0-5.5-0.7-7.1-2C88.8,55.7,88,54,88,51.9c0-3.2,1.9-5.8,5.6-7.9
		c3.7-2.1,8.6-3.5,14.8-4.2v-4.6c0-1.6-0.7-3-2-4.2c-1.3-1.2-3-1.8-5-1.8c-1.9,0-3.5,0.4-4.9,1.2c-1,0.6-1.5,1.2-1.5,1.7
		c0,0.3,0.3,0.8,0.8,1.5c0.6,0.9,0.9,1.6,0.9,2.3c0,1-0.3,1.8-0.9,2.4s-1.4,0.9-2.5,0.9c-1.1,0-2-0.4-2.7-1.1
		c-0.7-0.7-1.1-1.7-1.1-2.8c0-2.1,1.2-4.1,3.6-5.9c2.4-1.8,5.6-2.7,9.5-2.7c3.6,0,6.4,0.8,8.3,2.3c1.9,1.6,2.9,3.5,2.9,5.7v16.6
		c0,1.5,0.2,2.6,0.7,3.2c0.5,0.7,1.1,1.1,1.8,1.1C117.2,55.8,118.1,55.5,119,54.8z M108.4,42c-5.5,0.8-9.4,2-11.7,3.7
		c-1.7,1.3-2.6,3.1-2.6,5.5c0,1.7,0.4,3,1.3,3.9c0.9,0.9,2,1.4,3.5,1.4c2.6,0,4.8-1,6.6-2.9c1.9-1.9,2.8-4.4,2.8-7.3V42z"/>
	<path class="st0" d="M134.2,27.7h7.6v2.8h-7.6v22.2c0,1,0.2,1.7,0.7,2.1c0.6,0.5,1.6,0.8,2.7,0.8h4.2v2.4h-18.6v-2.4h2.6
		c1.1,0,1.9-0.2,2.4-0.6c0.5-0.4,0.7-1,0.7-1.8V30.6h-5.3v-2.8h5.3v-2.3c0-5.4,1.1-9.4,3.3-12.3c2.2-2.8,5-4.2,8.3-4.2
		c2.4,0,4.3,0.6,5.7,1.8c1.4,1.2,2.1,2.7,2.1,4.7c0,1.3-0.3,2.2-1,3c-0.7,0.7-1.5,1.1-2.5,1.1c-0.9,0-1.7-0.3-2.3-0.9
		c-0.6-0.6-0.9-1.3-0.9-2.2c0-1,0.4-1.8,1.2-2.5c0.6-0.5,0.9-0.9,0.9-1.2c0-0.4-0.2-0.7-0.7-1c-0.5-0.3-1.2-0.5-2.2-0.5
		c-1.8,0-3.4,0.8-4.6,2.4c-1.3,1.6-1.9,4.1-1.9,7.3V27.7z"/>
	<path class="st0" d="M174.5,43.1h-21.8c0.1,4.6,1,7.9,2.6,9.8c1.9,2.1,4.2,3.2,7.1,3.2c4.2,0,7.6-2.4,10.2-7.2l2.1,0.9
		C171.6,56,167,59,161.1,59c-4.1,0-7.5-1.5-10.3-4.4c-2.8-2.9-4.2-6.7-4.2-11.3c0-4.9,1.4-8.9,4.1-12c2.7-3,6.1-4.6,10.1-4.6
		c2.9,0,5.5,0.8,7.6,2.3c2.1,1.5,3.8,3.7,4.8,6.5C174.1,37.6,174.5,40.1,174.5,43.1z M152.7,40.8h13.2c0.8,0,1.4-0.3,1.8-0.8
		c0.4-0.5,0.6-1.4,0.6-2.7c0-2.4-0.7-4.4-2.2-6.1c-1.5-1.7-3.2-2.5-5.2-2.5c-2.2,0-4.2,1-5.7,3S152.8,36.8,152.7,40.8z"/>
</g>
</svg>
